solid ASCII
  facet normal 6.513308e-15 0.000000e+00 -1.000000e+00
    outer loop
      vertex   6.200000e+01 4.815000e+01 5.200000e+00
      vertex   4.700000e+01 4.815000e+01 5.200000e+00
      vertex   6.200000e+01 5.005000e+01 5.200000e+00
    endloop
  endfacet
  facet normal 6.513308e-15 0.000000e+00 -1.000000e+00
    outer loop
      vertex   6.200000e+01 5.005000e+01 5.200000e+00
      vertex   4.700000e+01 4.815000e+01 5.200000e+00
      vertex   4.700000e+01 5.005000e+01 5.200000e+00
    endloop
  endfacet
  facet normal 1.000000e+00 1.480297e-14 -3.947460e-14
    outer loop
      vertex   6.200000e+01 4.815000e+01 2.500000e+00
      vertex   6.200000e+01 4.815000e+01 5.200000e+00
      vertex   6.200000e+01 4.575000e+01 2.500000e+00
    endloop
  endfacet
  facet normal 1.000000e+00 -3.511878e-14 4.900295e-15
    outer loop
      vertex   6.200000e+01 4.575000e+01 2.500000e+00
      vertex   6.200000e+01 4.815000e+01 5.200000e+00
      vertex   6.200000e+01 4.575000e+01 5.400000e+00
    endloop
  endfacet
  facet normal 1.000000e+00 -4.442340e-14 -1.067549e-13
    outer loop
      vertex   6.200000e+01 4.575000e+01 5.400000e+00
      vertex   6.200000e+01 4.815000e+01 5.200000e+00
      vertex   6.200000e+01 4.580014e+01 5.845042e+00
    endloop
  endfacet
  facet normal 1.000000e+00 -1.379392e-14 4.826700e-15
    outer loop
      vertex   6.200000e+01 4.580014e+01 5.845042e+00
      vertex   6.200000e+01 4.815000e+01 5.200000e+00
      vertex   6.200000e+01 4.594806e+01 6.267767e+00
    endloop
  endfacet
  facet normal 1.000000e+00 -5.402283e-15 2.213182e-14
    outer loop
      vertex   6.200000e+01 4.594806e+01 6.267767e+00
      vertex   6.200000e+01 4.815000e+01 5.200000e+00
      vertex   6.200000e+01 4.618634e+01 6.646980e+00
    endloop
  endfacet
  facet normal 1.000000e+00 -1.249986e-14 1.249986e-14
    outer loop
      vertex   6.200000e+01 4.618634e+01 6.646980e+00
      vertex   6.200000e+01 4.815000e+01 5.200000e+00
      vertex   6.200000e+01 4.650302e+01 6.963663e+00
    endloop
  endfacet
  facet normal 1.000000e+00 1.404485e-14 3.728838e-14
    outer loop
      vertex   6.200000e+01 4.650302e+01 6.963663e+00
      vertex   6.200000e+01 4.815000e+01 5.200000e+00
      vertex   6.200000e+01 4.688223e+01 7.201938e+00
    endloop
  endfacet
  facet normal 1.000000e+00 -8.133295e-15 2.324362e-14
    outer loop
      vertex   6.200000e+01 4.688223e+01 7.201938e+00
      vertex   6.200000e+01 4.815000e+01 5.200000e+00
      vertex   6.200000e+01 4.730496e+01 7.349856e+00
    endloop
  endfacet
  facet normal 1.000000e+00 5.830178e-14 4.935719e-14
    outer loop
      vertex   6.200000e+01 4.730496e+01 7.349856e+00
      vertex   6.200000e+01 4.815000e+01 5.200000e+00
      vertex   6.200000e+01 4.775000e+01 7.400000e+00
    endloop
  endfacet
  facet normal 1.000000e+00 7.105427e-14 5.167583e-14
    outer loop
      vertex   6.200000e+01 4.775000e+01 7.400000e+00
      vertex   6.200000e+01 4.815000e+01 5.200000e+00
      vertex   6.200000e+01 4.855000e+01 7.400000e+00
    endloop
  endfacet
  facet normal 1.000000e+00 -2.550667e-14 6.923236e-14
    outer loop
      vertex   6.200000e+01 4.855000e+01 7.400000e+00
      vertex   6.200000e+01 4.815000e+01 5.200000e+00
      vertex   6.200000e+01 5.005000e+01 5.900000e+00
    endloop
  endfacet
  facet normal 1.000000e+00 0.000000e+00 0.000000e+00
    outer loop
      vertex   6.200000e+01 5.005000e+01 5.900000e+00
      vertex   6.200000e+01 4.815000e+01 5.200000e+00
      vertex   6.200000e+01 5.005000e+01 5.200000e+00
    endloop
  endfacet
  facet normal -4.091004e-15 1.000000e+00 -1.937889e-29
    outer loop
      vertex   3.800000e+01 -2.050000e+01 2.500000e+00
      vertex   7.100000e+01 -2.050000e+01 2.500000e+00
      vertex   3.800000e+01 -2.050000e+01 -5.000000e-01
    endloop
  endfacet
  facet normal -4.091004e-15 1.000000e+00 -1.631906e-29
    outer loop
      vertex   3.800000e+01 -2.050000e+01 -5.000000e-01
      vertex   7.100000e+01 -2.050000e+01 2.500000e+00
      vertex   7.100000e+01 -2.050000e+01 -5.000000e-01
    endloop
  endfacet
  facet normal -1.000000e+00 -4.306320e-15 -4.736952e-15
    outer loop
      vertex   7.100000e+01 -2.050000e+01 2.500000e+00
      vertex   7.100000e+01 4.550000e+01 2.500000e+00
      vertex   7.100000e+01 -2.050000e+01 -5.000000e-01
    endloop
  endfacet
  facet normal -1.000000e+00 -4.306320e-15 -4.736952e-15
    outer loop
      vertex   7.100000e+01 -2.050000e+01 -5.000000e-01
      vertex   7.100000e+01 4.550000e+01 2.500000e+00
      vertex   7.100000e+01 4.550000e+01 -5.000000e-01
    endloop
  endfacet
  facet normal 4.306320e-15 -1.000000e+00 2.039883e-29
    outer loop
      vertex   7.100000e+01 4.550000e+01 2.500000e+00
      vertex   3.800000e+01 4.550000e+01 2.500000e+00
      vertex   7.100000e+01 4.550000e+01 -5.000000e-01
    endloop
  endfacet
  facet normal 4.306320e-15 -1.000000e+00 1.631906e-29
    outer loop
      vertex   7.100000e+01 4.550000e+01 -5.000000e-01
      vertex   3.800000e+01 4.550000e+01 2.500000e+00
      vertex   3.800000e+01 4.550000e+01 -5.000000e-01
    endloop
  endfacet
  facet normal 1.000000e+00 4.306320e-15 4.736952e-15
    outer loop
      vertex   3.800000e+01 4.550000e+01 2.500000e+00
      vertex   3.800000e+01 -2.050000e+01 2.500000e+00
      vertex   3.800000e+01 4.550000e+01 -5.000000e-01
    endloop
  endfacet
  facet normal 1.000000e+00 4.306320e-15 4.736952e-15
    outer loop
      vertex   3.800000e+01 4.550000e+01 -5.000000e-01
      vertex   3.800000e+01 -2.050000e+01 2.500000e+00
      vertex   3.800000e+01 -2.050000e+01 -5.000000e-01
    endloop
  endfacet
  facet normal -6.190334e-15 -6.728624e-17 1.000000e+00
    outer loop
      vertex   3.800000e+01 -2.050000e+01 -5.000000e-01
      vertex   7.100000e+01 -2.050000e+01 -5.000000e-01
      vertex   3.800000e+01 4.550000e+01 -5.000000e-01
    endloop
  endfacet
  facet normal -6.055762e-15 -2.596214e-29 1.000000e+00
    outer loop
      vertex   3.800000e+01 4.550000e+01 -5.000000e-01
      vertex   7.100000e+01 -2.050000e+01 -5.000000e-01
      vertex   7.100000e+01 4.550000e+01 -5.000000e-01
    endloop
  endfacet
  facet normal 6.167906e-15 2.706010e-29 -1.000000e+00
    outer loop
      vertex   7.250000e+01 -2.450000e+01 -2.500000e+00
      vertex   3.650000e+01 -2.450000e+01 -2.500000e+00
      vertex   7.250000e+01 5.000000e+01 -2.500000e+00
    endloop
  endfacet
  facet normal 6.044547e-15 5.960929e-17 -1.000000e+00
    outer loop
      vertex   7.250000e+01 5.000000e+01 -2.500000e+00
      vertex   3.650000e+01 -2.450000e+01 -2.500000e+00
      vertex   3.650000e+01 5.000000e+01 -2.500000e+00
    endloop
  endfacet
  facet normal 3.050911e-15 -1.000000e+00 1.012901e-13
    outer loop
      vertex   5.100657e+01 -2.255000e+01 4.850000e+00
      vertex   5.100657e+01 -2.255000e+01 2.500000e+00
      vertex   5.799343e+01 -2.255000e+01 4.850000e+00
    endloop
  endfacet
  facet normal 5.084852e-15 -1.000000e+00 9.524296e-14
    outer loop
      vertex   5.799343e+01 -2.255000e+01 4.850000e+00
      vertex   5.100657e+01 -2.255000e+01 2.500000e+00
      vertex   5.799343e+01 -2.255000e+01 2.500000e+00
    endloop
  endfacet
  facet normal 6.356065e-15 7.527093e-29 -1.000000e+00
    outer loop
      vertex   5.100657e+01 -2.255000e+01 4.850000e+00
      vertex   5.799343e+01 -2.255000e+01 4.850000e+00
      vertex   5.100657e+01 -2.375000e+01 4.850000e+00
    endloop
  endfacet
  facet normal 6.356065e-15 2.649537e-28 -1.000000e+00
    outer loop
      vertex   5.100657e+01 -2.375000e+01 4.850000e+00
      vertex   5.799343e+01 -2.255000e+01 4.850000e+00
      vertex   5.799343e+01 -2.375000e+01 4.850000e+00
    endloop
  endfacet
  facet normal 4.269598e-15 -9.937122e-01 1.119645e-01
    outer loop
      vertex   4.700000e+01 4.575000e+01 5.400000e+00
      vertex   6.200000e+01 4.575000e+01 5.400000e+00
      vertex   5.450000e+01 4.580014e+01 5.845042e+00
    endloop
  endfacet
  facet normal 3.792252e-15 -9.937122e-01 1.119645e-01
    outer loop
      vertex   5.450000e+01 4.580014e+01 5.845042e+00
      vertex   6.200000e+01 4.575000e+01 5.400000e+00
      vertex   6.200000e+01 4.580014e+01 5.845042e+00
    endloop
  endfacet
  facet normal 3.655129e-15 -9.438833e-01 3.302791e-01
    outer loop
      vertex   5.450000e+01 4.580014e+01 5.845042e+00
      vertex   6.200000e+01 4.580014e+01 5.845042e+00
      vertex   5.450000e+01 4.594806e+01 6.267767e+00
    endloop
  endfacet
  facet normal 2.721791e-15 -9.438833e-01 3.302791e-01
    outer loop
      vertex   5.450000e+01 4.594806e+01 6.267767e+00
      vertex   6.200000e+01 4.580014e+01 5.845042e+00
      vertex   6.200000e+01 4.594806e+01 6.267767e+00
    endloop
  endfacet
  facet normal 2.469540e-15 -8.467242e-01 5.320321e-01
    outer loop
      vertex   5.450000e+01 4.594806e+01 6.267767e+00
      vertex   6.200000e+01 4.594806e+01 6.267767e+00
      vertex   5.450000e+01 4.618634e+01 6.646980e+00
    endloop
  endfacet
  facet normal 1.902493e-15 -8.467242e-01 5.320321e-01
    outer loop
      vertex   5.450000e+01 4.618634e+01 6.646980e+00
      vertex   6.200000e+01 4.594806e+01 6.267767e+00
      vertex   6.200000e+01 4.618634e+01 6.646980e+00
    endloop
  endfacet
  facet normal 1.339812e-15 -7.071068e-01 7.071068e-01
    outer loop
      vertex   5.450000e+01 4.618634e+01 6.646980e+00
      vertex   6.200000e+01 4.618634e+01 6.646980e+00
      vertex   5.450000e+01 4.650302e+01 6.963663e+00
    endloop
  endfacet
  facet normal 2.930839e-15 -7.071068e-01 7.071068e-01
    outer loop
      vertex   5.450000e+01 4.650302e+01 6.963663e+00
      vertex   6.200000e+01 4.618634e+01 6.646980e+00
      vertex   6.200000e+01 4.650302e+01 6.963663e+00
    endloop
  endfacet
  facet normal 2.316985e-15 -5.320321e-01 8.467242e-01
    outer loop
      vertex   5.450000e+01 4.650302e+01 6.963663e+00
      vertex   6.200000e+01 4.650302e+01 6.963663e+00
      vertex   5.450000e+01 4.688223e+01 7.201938e+00
    endloop
  endfacet
  facet normal 1.915896e-15 -5.320321e-01 8.467242e-01
    outer loop
      vertex   5.450000e+01 4.688223e+01 7.201938e+00
      vertex   6.200000e+01 4.650302e+01 6.963663e+00
      vertex   6.200000e+01 4.688223e+01 7.201938e+00
    endloop
  endfacet
  facet normal 1.139834e-15 -3.302791e-01 9.438833e-01
    outer loop
      vertex   5.450000e+01 4.688223e+01 7.201938e+00
      vertex   6.200000e+01 4.688223e+01 7.201938e+00
      vertex   5.450000e+01 4.730496e+01 7.349856e+00
    endloop
  endfacet
  facet normal 1.586947e-15 -3.302791e-01 9.438833e-01
    outer loop
      vertex   5.450000e+01 4.730496e+01 7.349856e+00
      vertex   6.200000e+01 4.688223e+01 7.201938e+00
      vertex   6.200000e+01 4.730496e+01 7.349856e+00
    endloop
  endfacet
  facet normal 7.773337e-16 -1.119645e-01 9.937122e-01
    outer loop
      vertex   5.450000e+01 4.730496e+01 7.349856e+00
      vertex   6.200000e+01 4.730496e+01 7.349856e+00
      vertex   6.200000e+01 4.775000e+01 7.400000e+00
    endloop
  endfacet
  facet normal -5.524304e-15 -1.119645e-01 9.937122e-01
    outer loop
      vertex   6.200000e+01 4.775000e+01 7.400000e+00
      vertex   4.700000e+01 4.775000e+01 7.400000e+00
      vertex   5.450000e+01 4.730496e+01 7.349856e+00
    endloop
  endfacet
  facet normal 1.001087e-15 -1.119645e-01 9.937122e-01
    outer loop
      vertex   5.450000e+01 4.730496e+01 7.349856e+00
      vertex   4.700000e+01 4.775000e+01 7.400000e+00
      vertex   4.700000e+01 4.730496e+01 7.349856e+00
    endloop
  endfacet
  facet normal 2.011629e-15 -3.302791e-01 9.438833e-01
    outer loop
      vertex   5.450000e+01 4.730496e+01 7.349856e+00
      vertex   4.700000e+01 4.730496e+01 7.349856e+00
      vertex   5.450000e+01 4.688223e+01 7.201938e+00
    endloop
  endfacet
  facet normal 2.235185e-15 -3.302791e-01 9.438833e-01
    outer loop
      vertex   5.450000e+01 4.688223e+01 7.201938e+00
      vertex   4.700000e+01 4.730496e+01 7.349856e+00
      vertex   4.700000e+01 4.688223e+01 7.201938e+00
    endloop
  endfacet
  facet normal 3.121844e-15 -5.320321e-01 8.467242e-01
    outer loop
      vertex   5.450000e+01 4.688223e+01 7.201938e+00
      vertex   4.700000e+01 4.688223e+01 7.201938e+00
      vertex   5.450000e+01 4.650302e+01 6.963663e+00
    endloop
  endfacet
  facet normal 2.821027e-15 -5.320321e-01 8.467242e-01
    outer loop
      vertex   5.450000e+01 4.650302e+01 6.963663e+00
      vertex   4.700000e+01 4.688223e+01 7.201938e+00
      vertex   4.700000e+01 4.650302e+01 6.963663e+00
    endloop
  endfacet
  facet normal 3.600745e-15 -7.071068e-01 7.071068e-01
    outer loop
      vertex   5.450000e+01 4.650302e+01 6.963663e+00
      vertex   4.700000e+01 4.650302e+01 6.963663e+00
      vertex   5.450000e+01 4.618634e+01 6.646980e+00
    endloop
  endfacet
  facet normal 5.108034e-15 -7.071068e-01 7.071068e-01
    outer loop
      vertex   5.450000e+01 4.618634e+01 6.646980e+00
      vertex   4.700000e+01 4.650302e+01 6.963663e+00
      vertex   4.700000e+01 4.618634e+01 6.646980e+00
    endloop
  endfacet
  facet normal 5.632138e-15 -8.467242e-01 5.320321e-01
    outer loop
      vertex   5.450000e+01 4.618634e+01 6.646980e+00
      vertex   4.700000e+01 4.618634e+01 6.646980e+00
      vertex   5.450000e+01 4.594806e+01 6.267767e+00
    endloop
  endfacet
  facet normal 4.325918e-15 -8.467242e-01 5.320321e-01
    outer loop
      vertex   5.450000e+01 4.594806e+01 6.267767e+00
      vertex   4.700000e+01 4.618634e+01 6.646980e+00
      vertex   4.700000e+01 4.594806e+01 6.267767e+00
    endloop
  endfacet
  facet normal 4.666694e-15 -9.438833e-01 3.302791e-01
    outer loop
      vertex   5.450000e+01 4.594806e+01 6.267767e+00
      vertex   4.700000e+01 4.594806e+01 6.267767e+00
      vertex   5.450000e+01 4.580014e+01 5.845042e+00
    endloop
  endfacet
  facet normal 4.627581e-15 -9.438833e-01 3.302791e-01
    outer loop
      vertex   5.450000e+01 4.580014e+01 5.845042e+00
      vertex   4.700000e+01 4.594806e+01 6.267767e+00
      vertex   4.700000e+01 4.580014e+01 5.845042e+00
    endloop
  endfacet
  facet normal 4.760204e-15 -9.937122e-01 1.119645e-01
    outer loop
      vertex   5.450000e+01 4.580014e+01 5.845042e+00
      vertex   4.700000e+01 4.580014e+01 5.845042e+00
      vertex   4.700000e+01 4.575000e+01 5.400000e+00
    endloop
  endfacet
  facet normal -6.039613e-15 -4.291403e-28 1.000000e+00
    outer loop
      vertex   4.700000e+01 4.775000e+01 7.400000e+00
      vertex   6.200000e+01 4.775000e+01 7.400000e+00
      vertex   4.700000e+01 4.855000e+01 7.400000e+00
    endloop
  endfacet
  facet normal -6.039613e-15 -4.207258e-28 1.000000e+00
    outer loop
      vertex   4.700000e+01 4.855000e+01 7.400000e+00
      vertex   6.200000e+01 4.775000e+01 7.400000e+00
      vertex   6.200000e+01 4.855000e+01 7.400000e+00
    endloop
  endfacet
  facet normal -2.368476e-15 1.000000e+00 -7.894920e-14
    outer loop
      vertex   6.200000e+01 4.815000e+01 5.200000e+00
      vertex   6.200000e+01 4.815000e+01 2.500000e+00
      vertex   4.700000e+01 4.815000e+01 5.200000e+00
    endloop
  endfacet
  facet normal -4.263256e-15 1.000000e+00 -8.947576e-14
    outer loop
      vertex   4.700000e+01 4.815000e+01 5.200000e+00
      vertex   6.200000e+01 4.815000e+01 2.500000e+00
      vertex   4.700000e+01 4.815000e+01 2.500000e+00
    endloop
  endfacet
  facet normal -6.190334e-15 2.007944e-14 1.000000e+00
    outer loop
      vertex   3.800000e+01 -2.050000e+01 2.500000e+00
      vertex   5.799343e+01 -2.075000e+01 2.500000e+00
      vertex   7.100000e+01 -2.050000e+01 2.500000e+00
    endloop
  endfacet
  facet normal -5.804386e-15 0.000000e+00 1.000000e+00
    outer loop
      vertex   7.100000e+01 -2.050000e+01 2.500000e+00
      vertex   5.799343e+01 -2.075000e+01 2.500000e+00
      vertex   5.799343e+01 -2.255000e+01 2.500000e+00
    endloop
  endfacet
  facet normal -5.810905e-15 4.135656e-17 1.000000e+00
    outer loop
      vertex   7.100000e+01 -2.050000e+01 2.500000e+00
      vertex   5.799343e+01 -2.255000e+01 2.500000e+00
      vertex   7.250000e+01 -2.450000e+01 2.500000e+00
    endloop
  endfacet
  facet normal -6.167906e-15 -2.614469e-15 1.000000e+00
    outer loop
      vertex   7.250000e+01 -2.450000e+01 2.500000e+00
      vertex   5.799343e+01 -2.255000e+01 2.500000e+00
      vertex   3.650000e+01 -2.450000e+01 2.500000e+00
    endloop
  endfacet
  facet normal -6.356065e-15 -5.405250e-16 1.000000e+00
    outer loop
      vertex   3.650000e+01 -2.450000e+01 2.500000e+00
      vertex   5.799343e+01 -2.255000e+01 2.500000e+00
      vertex   5.100657e+01 -2.255000e+01 2.500000e+00
    endloop
  endfacet
  facet normal -6.455665e-15 2.004282e-16 1.000000e+00
    outer loop
      vertex   3.650000e+01 -2.450000e+01 2.500000e+00
      vertex   5.100657e+01 -2.255000e+01 2.500000e+00
      vertex   3.800000e+01 -2.050000e+01 2.500000e+00
    endloop
  endfacet
  facet normal -6.487255e-15 0.000000e+00 1.000000e+00
    outer loop
      vertex   3.800000e+01 -2.050000e+01 2.500000e+00
      vertex   5.100657e+01 -2.255000e+01 2.500000e+00
      vertex   5.100657e+01 -2.075000e+01 2.500000e+00
    endloop
  endfacet
  facet normal -6.356065e-15 6.825345e-15 1.000000e+00
    outer loop
      vertex   3.800000e+01 -2.050000e+01 2.500000e+00
      vertex   5.100657e+01 -2.075000e+01 2.500000e+00
      vertex   5.799343e+01 -2.075000e+01 2.500000e+00
    endloop
  endfacet
  facet normal -5.741760e-15 -6.728624e-17 1.000000e+00
    outer loop
      vertex   3.800000e+01 -2.050000e+01 2.500000e+00
      vertex   3.800000e+01 4.550000e+01 2.500000e+00
      vertex   3.650000e+01 -2.450000e+01 2.500000e+00
    endloop
  endfacet
  facet normal -6.100018e-15 -5.960929e-17 1.000000e+00
    outer loop
      vertex   3.650000e+01 -2.450000e+01 2.500000e+00
      vertex   3.800000e+01 4.550000e+01 2.500000e+00
      vertex   3.650000e+01 5.000000e+01 2.500000e+00
    endloop
  endfacet
  facet normal -5.921189e-15 1.702151e-22 1.000000e+00
    outer loop
      vertex   3.650000e+01 5.000000e+01 2.500000e+00
      vertex   3.800000e+01 4.550000e+01 2.500000e+00
      vertex   4.700000e+01 4.815000e+01 2.500000e+00
    endloop
  endfacet
  facet normal -6.513308e-15 -3.360675e-15 1.000000e+00
    outer loop
      vertex   3.650000e+01 5.000000e+01 2.500000e+00
      vertex   4.700000e+01 4.815000e+01 2.500000e+00
      vertex   6.200000e+01 4.815000e+01 2.500000e+00
    endloop
  endfacet
  facet normal -5.921189e-15 -8.765121e-29 1.000000e+00
    outer loop
      vertex   4.700000e+01 4.815000e+01 2.500000e+00
      vertex   3.800000e+01 4.550000e+01 2.500000e+00
      vertex   4.700000e+01 4.575000e+01 2.500000e+00
    endloop
  endfacet
  facet normal -6.055762e-15 4.844609e-15 1.000000e+00
    outer loop
      vertex   4.700000e+01 4.575000e+01 2.500000e+00
      vertex   3.800000e+01 4.550000e+01 2.500000e+00
      vertex   7.100000e+01 4.550000e+01 2.500000e+00
    endloop
  endfacet
  facet normal -6.513308e-15 -3.907984e-14 1.000000e+00
    outer loop
      vertex   4.700000e+01 4.575000e+01 2.500000e+00
      vertex   7.100000e+01 4.550000e+01 2.500000e+00
      vertex   6.200000e+01 4.575000e+01 2.500000e+00
    endloop
  endfacet
  facet normal -5.427757e-15 -8.034694e-29 1.000000e+00
    outer loop
      vertex   6.200000e+01 4.575000e+01 2.500000e+00
      vertex   7.100000e+01 4.550000e+01 2.500000e+00
      vertex   6.200000e+01 4.815000e+01 2.500000e+00
    endloop
  endfacet
  facet normal -5.471858e-15 -1.497770e-16 1.000000e+00
    outer loop
      vertex   6.200000e+01 4.815000e+01 2.500000e+00
      vertex   7.100000e+01 4.550000e+01 2.500000e+00
      vertex   7.250000e+01 5.000000e+01 2.500000e+00
    endloop
  endfacet
  facet normal -6.044547e-15 3.100623e-15 1.000000e+00
    outer loop
      vertex   6.200000e+01 4.815000e+01 2.500000e+00
      vertex   7.250000e+01 5.000000e+01 2.500000e+00
      vertex   3.650000e+01 5.000000e+01 2.500000e+00
    endloop
  endfacet
  facet normal -5.921189e-15 -2.484823e-29 1.000000e+00
    outer loop
      vertex   7.250000e+01 5.000000e+01 2.500000e+00
      vertex   7.100000e+01 4.550000e+01 2.500000e+00
      vertex   7.250000e+01 -2.450000e+01 2.500000e+00
    endloop
  endfacet
  facet normal -5.921189e-15 -2.549853e-29 1.000000e+00
    outer loop
      vertex   7.250000e+01 -2.450000e+01 2.500000e+00
      vertex   7.100000e+01 4.550000e+01 2.500000e+00
      vertex   7.100000e+01 -2.050000e+01 2.500000e+00
    endloop
  endfacet
  facet normal 2.542426e-15 -1.000000e+00 -1.578984e-14
    outer loop
      vertex   5.799343e+01 -2.375000e+01 4.850000e+00
      vertex   5.799343e+01 -2.375000e+01 5.300000e+00
      vertex   5.100657e+01 -2.375000e+01 4.850000e+00
    endloop
  endfacet
  facet normal 1.525456e-15 -1.000000e+00 -1.204335e-28
    outer loop
      vertex   5.100657e+01 -2.375000e+01 4.850000e+00
      vertex   5.799343e+01 -2.375000e+01 5.300000e+00
      vertex   5.100657e+01 -2.375000e+01 5.300000e+00
    endloop
  endfacet
  facet normal 1.000000e+00 4.144833e-14 6.544624e-28
    outer loop
      vertex   5.799343e+01 -2.375000e+01 4.850000e+00
      vertex   5.799343e+01 -2.255000e+01 4.850000e+00
      vertex   5.799343e+01 -2.375000e+01 5.300000e+00
    endloop
  endfacet
  facet normal 1.000000e+00 3.918751e-14 -6.028847e-15
    outer loop
      vertex   5.799343e+01 -2.375000e+01 5.300000e+00
      vertex   5.799343e+01 -2.255000e+01 4.850000e+00
      vertex   5.799343e+01 -2.225000e+01 6.800000e+00
    endloop
  endfacet
  facet normal 1.000000e+00 7.579123e-14 -1.166019e-14
    outer loop
      vertex   5.799343e+01 -2.225000e+01 6.800000e+00
      vertex   5.799343e+01 -2.255000e+01 4.850000e+00
      vertex   5.799343e+01 -2.075000e+01 6.800000e+00
    endloop
  endfacet
  facet normal 1.000000e+00 5.241859e-14 9.914550e-15
    outer loop
      vertex   5.799343e+01 -2.075000e+01 6.800000e+00
      vertex   5.799343e+01 -2.255000e+01 4.850000e+00
      vertex   5.799343e+01 -2.075000e+01 2.500000e+00
    endloop
  endfacet
  facet normal 1.000000e+00 0.000000e+00 -3.023586e-14
    outer loop
      vertex   5.799343e+01 -2.075000e+01 2.500000e+00
      vertex   5.799343e+01 -2.255000e+01 4.850000e+00
      vertex   5.799343e+01 -2.255000e+01 2.500000e+00
    endloop
  endfacet
  facet normal -3.559396e-15 1.000000e+00 -2.352654e-29
    outer loop
      vertex   5.100657e+01 -2.075000e+01 2.500000e+00
      vertex   5.100657e+01 -2.075000e+01 6.800000e+00
      vertex   5.799343e+01 -2.075000e+01 2.500000e+00
    endloop
  endfacet
  facet normal -3.559396e-15 1.000000e+00 -3.528981e-29
    outer loop
      vertex   5.799343e+01 -2.075000e+01 2.500000e+00
      vertex   5.100657e+01 -2.075000e+01 6.800000e+00
      vertex   5.799343e+01 -2.075000e+01 6.800000e+00
    endloop
  endfacet
  facet normal -1.000000e+00 -1.184238e-14 7.894919e-14
    outer loop
      vertex   5.100657e+01 -2.375000e+01 4.850000e+00
      vertex   5.100657e+01 -2.375000e+01 5.300000e+00
      vertex   5.100657e+01 -2.255000e+01 4.850000e+00
    endloop
  endfacet
  facet normal -1.000000e+00 -6.502543e-14 -6.287227e-14
    outer loop
      vertex   5.100657e+01 -2.255000e+01 4.850000e+00
      vertex   5.100657e+01 -2.375000e+01 5.300000e+00
      vertex   5.100657e+01 -2.225000e+01 6.800000e+00
    endloop
  endfacet
  facet normal -1.000000e+00 0.000000e+00 -7.287618e-14
    outer loop
      vertex   5.100657e+01 -2.255000e+01 4.850000e+00
      vertex   5.100657e+01 -2.225000e+01 6.800000e+00
      vertex   5.100657e+01 -2.075000e+01 6.800000e+00
    endloop
  endfacet
  facet normal -1.000000e+00 -7.178868e-14 -6.609700e-15
    outer loop
      vertex   5.100657e+01 -2.075000e+01 6.800000e+00
      vertex   5.100657e+01 -2.075000e+01 2.500000e+00
      vertex   5.100657e+01 -2.255000e+01 4.850000e+00
    endloop
  endfacet
  facet normal -1.000000e+00 0.000000e+00 4.837738e-14
    outer loop
      vertex   5.100657e+01 -2.255000e+01 4.850000e+00
      vertex   5.100657e+01 -2.075000e+01 2.500000e+00
      vertex   5.100657e+01 -2.255000e+01 2.500000e+00
    endloop
  endfacet
  facet normal -4.764082e-15 -7.071068e-01 7.071068e-01
    outer loop
      vertex   5.100657e+01 -2.375000e+01 5.300000e+00
      vertex   5.799343e+01 -2.375000e+01 5.300000e+00
      vertex   5.100657e+01 -2.225000e+01 6.800000e+00
    endloop
  endfacet
  facet normal -1.258437e-15 -7.071068e-01 7.071068e-01
    outer loop
      vertex   5.100657e+01 -2.225000e+01 6.800000e+00
      vertex   5.799343e+01 -2.375000e+01 5.300000e+00
      vertex   5.799343e+01 -2.225000e+01 6.800000e+00
    endloop
  endfacet
  facet normal -1.507289e-15 7.071068e-01 7.071068e-01
    outer loop
      vertex   6.200000e+01 5.005000e+01 5.900000e+00
      vertex   4.700000e+01 5.005000e+01 5.900000e+00
      vertex   6.200000e+01 4.855000e+01 7.400000e+00
    endloop
  endfacet
  facet normal -7.285229e-15 7.071068e-01 7.071068e-01
    outer loop
      vertex   6.200000e+01 4.855000e+01 7.400000e+00
      vertex   4.700000e+01 5.005000e+01 5.900000e+00
      vertex   4.700000e+01 4.855000e+01 7.400000e+00
    endloop
  endfacet
  facet normal -2.368476e-15 1.000000e+00 0.000000e+00
    outer loop
      vertex   4.700000e+01 5.005000e+01 5.200000e+00
      vertex   4.700000e+01 5.005000e+01 5.900000e+00
      vertex   6.200000e+01 5.005000e+01 5.200000e+00
    endloop
  endfacet
  facet normal -2.368476e-15 1.000000e+00 0.000000e+00
    outer loop
      vertex   6.200000e+01 5.005000e+01 5.200000e+00
      vertex   4.700000e+01 5.005000e+01 5.900000e+00
      vertex   6.200000e+01 5.005000e+01 5.900000e+00
    endloop
  endfacet
  facet normal -5.720459e-15 -1.776357e-15 1.000000e+00
    outer loop
      vertex   5.799343e+01 -2.075000e+01 6.800000e+00
      vertex   5.100657e+01 -2.075000e+01 6.800000e+00
      vertex   5.799343e+01 -2.225000e+01 6.800000e+00
    endloop
  endfacet
  facet normal -5.339095e-15 0.000000e+00 1.000000e+00
    outer loop
      vertex   5.799343e+01 -2.225000e+01 6.800000e+00
      vertex   5.100657e+01 -2.075000e+01 6.800000e+00
      vertex   5.100657e+01 -2.225000e+01 6.800000e+00
    endloop
  endfacet
  facet normal -1.000000e+00 -1.480297e-14 5.261377e-08
    outer loop
      vertex   4.700000e+01 4.815000e+01 2.500000e+00
      vertex   4.700000e+01 4.575000e+01 2.500000e+00
      vertex   4.700000e+01 4.815000e+01 5.200000e+00
    endloop
  endfacet
  facet normal -1.000000e+00 5.919048e-08 -4.900295e-15
    outer loop
      vertex   4.700000e+01 4.815000e+01 5.200000e+00
      vertex   4.700000e+01 4.575000e+01 2.500000e+00
      vertex   4.700000e+01 4.575000e+01 5.400000e+00
    endloop
  endfacet
  facet normal -1.000000e+00 5.863989e-08 -6.607018e-09
    outer loop
      vertex   4.700000e+01 4.815000e+01 5.200000e+00
      vertex   4.700000e+01 4.575000e+01 5.400000e+00
      vertex   4.700000e+01 4.580014e+01 5.845042e+00
    endloop
  endfacet
  facet normal -1.000000e+00 5.515569e-08 -1.929981e-08
    outer loop
      vertex   4.700000e+01 4.580014e+01 5.845042e+00
      vertex   4.700000e+01 4.594806e+01 6.267767e+00
      vertex   4.700000e+01 4.815000e+01 5.200000e+00
    endloop
  endfacet
  facet normal -1.000000e+00 4.944795e-08 -3.107023e-08
    outer loop
      vertex   4.700000e+01 4.815000e+01 5.200000e+00
      vertex   4.700000e+01 4.594806e+01 6.267767e+00
      vertex   4.700000e+01 4.618634e+01 6.646980e+00
    endloop
  endfacet
  facet normal -1.000000e+00 4.165112e-08 -4.165112e-08
    outer loop
      vertex   4.700000e+01 4.815000e+01 5.200000e+00
      vertex   4.700000e+01 4.618634e+01 6.646980e+00
      vertex   4.700000e+01 4.650302e+01 6.963663e+00
    endloop
  endfacet
  facet normal -1.000000e+00 3.189544e-08 -5.076137e-08
    outer loop
      vertex   4.700000e+01 4.650302e+01 6.963663e+00
      vertex   4.700000e+01 4.688223e+01 7.201938e+00
      vertex   4.700000e+01 4.815000e+01 5.200000e+00
    endloop
  endfacet
  facet normal -1.000000e+00 2.032588e-08 -5.808803e-08
    outer loop
      vertex   4.700000e+01 4.815000e+01 5.200000e+00
      vertex   4.700000e+01 4.688223e+01 7.201938e+00
      vertex   4.700000e+01 4.730496e+01 7.349856e+00
    endloop
  endfacet
  facet normal -1.000000e+00 3.127917e-07 5.687121e-08
    outer loop
      vertex   4.700000e+01 4.815000e+01 5.200000e+00
      vertex   4.700000e+01 4.730496e+01 7.349856e+00
      vertex   4.700000e+01 4.775000e+01 7.400000e+00
    endloop
  endfacet
  facet normal -1.000000e+00 -7.105427e-14 -3.229739e-15
    outer loop
      vertex   4.700000e+01 4.775000e+01 7.400000e+00
      vertex   4.700000e+01 4.855000e+01 7.400000e+00
      vertex   4.700000e+01 4.815000e+01 5.200000e+00
    endloop
  endfacet
  facet normal -1.000000e+00 6.376668e-15 -1.730809e-14
    outer loop
      vertex   4.700000e+01 4.815000e+01 5.200000e+00
      vertex   4.700000e+01 4.855000e+01 7.400000e+00
      vertex   4.700000e+01 5.005000e+01 5.900000e+00
    endloop
  endfacet
  facet normal -1.000000e+00 0.000000e+00 0.000000e+00
    outer loop
      vertex   4.700000e+01 4.815000e+01 5.200000e+00
      vertex   4.700000e+01 5.005000e+01 5.900000e+00
      vertex   4.700000e+01 5.005000e+01 5.200000e+00
    endloop
  endfacet
  facet normal 4.263256e-15 -1.000000e+00 2.089121e-29
    outer loop
      vertex   6.200000e+01 4.575000e+01 5.400000e+00
      vertex   4.700000e+01 4.575000e+01 5.400000e+00
      vertex   6.200000e+01 4.575000e+01 2.500000e+00
    endloop
  endfacet
  facet normal 4.263256e-15 -1.000000e+00 1.856997e-29
    outer loop
      vertex   6.200000e+01 4.575000e+01 2.500000e+00
      vertex   4.700000e+01 4.575000e+01 5.400000e+00
      vertex   4.700000e+01 4.575000e+01 2.500000e+00
    endloop
  endfacet
  facet normal -1.000000e+00 -4.196494e-15 1.989520e-14
    outer loop
      vertex   3.650000e+01 -2.450000e+01 2.500000e+00
      vertex   3.650000e+01 5.000000e+01 2.500000e+00
      vertex   3.650000e+01 -2.450000e+01 -2.500000e+00
    endloop
  endfacet
  facet normal -1.000000e+00 -4.387244e-15 2.273737e-14
    outer loop
      vertex   3.650000e+01 -2.450000e+01 -2.500000e+00
      vertex   3.650000e+01 5.000000e+01 2.500000e+00
      vertex   3.650000e+01 5.000000e+01 -2.500000e+00
    endloop
  endfacet
  facet normal 4.144833e-15 -1.000000e+00 -8.246226e-29
    outer loop
      vertex   7.250000e+01 -2.450000e+01 2.500000e+00
      vertex   3.650000e+01 -2.450000e+01 2.500000e+00
      vertex   7.250000e+01 -2.450000e+01 -2.500000e+00
    endloop
  endfacet
  facet normal 4.144833e-15 -1.000000e+00 -8.077936e-29
    outer loop
      vertex   7.250000e+01 -2.450000e+01 -2.500000e+00
      vertex   3.650000e+01 -2.450000e+01 2.500000e+00
      vertex   3.650000e+01 -2.450000e+01 -2.500000e+00
    endloop
  endfacet
  facet normal 1.000000e+00 4.196494e-15 -2.273737e-14
    outer loop
      vertex   7.250000e+01 5.000000e+01 2.500000e+00
      vertex   7.250000e+01 -2.450000e+01 2.500000e+00
      vertex   7.250000e+01 5.000000e+01 -2.500000e+00
    endloop
  endfacet
  facet normal 1.000000e+00 4.387244e-15 -1.989520e-14
    outer loop
      vertex   7.250000e+01 5.000000e+01 -2.500000e+00
      vertex   7.250000e+01 -2.450000e+01 2.500000e+00
      vertex   7.250000e+01 -2.450000e+01 -2.500000e+00
    endloop
  endfacet
  facet normal -4.144833e-15 1.000000e+00 9.424258e-29
    outer loop
      vertex   3.650000e+01 5.000000e+01 2.500000e+00
      vertex   7.250000e+01 5.000000e+01 2.500000e+00
      vertex   3.650000e+01 5.000000e+01 -2.500000e+00
    endloop
  endfacet
  facet normal -4.144833e-15 1.000000e+00 9.424258e-29
    outer loop
      vertex   3.650000e+01 5.000000e+01 -2.500000e+00
      vertex   7.250000e+01 5.000000e+01 2.500000e+00
      vertex   7.250000e+01 5.000000e+01 -2.500000e+00
    endloop
  endfacet
endsolid
